<?xml version="1.0" standalone="no"?>
<!DOCTYPE svg PUBLIC "-//W3C//DTD SVG 1.1//EN" "http://www.w3.org/Graphics/SVG/1.1/DTD/svg11.dtd" >
<svg>
<metadata>
Created by FontForge 20090914 at Fri Dec 22 19:39:04 2017
 By www-data
Taken by Vultures Typeface (Demo) &#194;&#169; The Branded Quotes 2016. All Rights Reserved.
</metadata>
<defs>
<font id="TakenbyVulturesDemo" horiz-adv-x="1014" >
  <font-face 
    font-family="Taken by Vultures Demo"
    font-weight="400"
    font-stretch="normal"
    units-per-em="2048"
    panose-1="2 0 5 0 0 0 0 0 0 0"
    ascent="1638"
    descent="-410"
    x-height="471"
    cap-height="1609"
    bbox="-4287 -1242 4284 2505"
    underline-thickness="150"
    underline-position="-292"
    unicode-range="U+001D-U+F002"
  />
<missing-glyph horiz-adv-x="1024" 
 />
    <glyph glyph-name="tt" unicode="tt" horiz-adv-x="442" 
d="M532 909c8.66699 -5.33301 15.667 -8 21 -8v-15l-93 -237h7c230 5.33301 407.667 8 533 8h849c94 0 223.333 -2.66699 388 -8c10 -4.66699 17.667 -7 23 -7v-36c-51.333 -9.33301 -90 -14 -116 -14c-14 0 -21 7 -21 21c-120.667 5.33301 -216.667 8 -288 8h-583
c-187.333 0 -456.333 -2.66699 -807 -8c-379.333 -886.667 -569 -1342.67 -569 -1368c-12 -10 -19 -15 -21 -15h-36c-10 0 -15 7.66699 -15 23l489 1173c-164 -187.333 -267 -281 -309 -281h-51c-10.667 0 -17.667 12 -21 36c0 42 48 181 144 417h-7
c-28 0 -78.667 -2 -152 -6l-6 14v7c4 14 18 21 42 21h144c66 164 109.667 246 131 246h13c10 -4.66699 17.667 -7 23 -7v-29c-63.333 -122.667 -95 -190 -95 -202h167c56.667 0 85 17 85 51c55.333 126.667 89.333 196 102 208c8 5.33301 17.667 8 29 8zM-23 196h7
c140 126 262.667 260 368 402v8h-101c-86.667 0 -130 -9.66699 -130 -29c-67.333 -146.667 -115.333 -273.667 -144 -381z" />
    <glyph glyph-name=".notdef" horiz-adv-x="1024" 
 />
    <glyph glyph-name=".null" horiz-adv-x="0" 
 />
    <glyph glyph-name=".null" horiz-adv-x="0" 
 />
    <glyph glyph-name="space" unicode=" " horiz-adv-x="508" 
 />
    <glyph glyph-name="space" unicode="&#xa0;" horiz-adv-x="508" 
 />
    <glyph glyph-name="exclam" unicode="!" horiz-adv-x="545" 
d="M489 1200h23c8.66699 -1.33301 13 -6 13 -14c-212 -540 -324.333 -811.333 -337 -814h-44c-10 0 -15 5 -15 15c15.333 46.667 111.333 281.667 288 705c-8.66699 0 -13 5 -13 15v7c32.667 57.333 61 86 85 86zM108 256c24 -8.66699 36 -22.667 36 -42
c-22 -20 -51 -30 -87 -30l-21 30v14c0 14.667 24 24 72 28z" />
    <glyph glyph-name="quotedbl" unicode="&#x22;" horiz-adv-x="690" 
 />
    <glyph glyph-name="numbersign" unicode="#" horiz-adv-x="547" 
 />
    <glyph glyph-name="dollar" unicode="$" horiz-adv-x="387" 
 />
    <glyph glyph-name="percent" unicode="%" horiz-adv-x="257" 
 />
    <glyph glyph-name="ampersand" unicode="&#x26;" horiz-adv-x="491" 
 />
    <glyph glyph-name="quotesingle" unicode="'" horiz-adv-x="499" 
 />
    <glyph glyph-name="parenleft" unicode="(" horiz-adv-x="289" 
 />
    <glyph glyph-name="parenright" unicode=")" horiz-adv-x="252" 
 />
    <glyph glyph-name="asterisk" unicode="*" horiz-adv-x="603" 
 />
    <glyph glyph-name="plus" unicode="+" horiz-adv-x="374" 
 />
    <glyph glyph-name="comma" unicode="," horiz-adv-x="293" 
 />
    <glyph glyph-name="hyphen" unicode="-" horiz-adv-x="373" 
 />
    <glyph glyph-name="hyphen" unicode="&#xad;" horiz-adv-x="373" 
 />
    <glyph glyph-name="period" unicode="." horiz-adv-x="344" 
d="M191 261c24 -10 36 -24.667 36 -44c-21.333 -18.667 -50 -28 -86 -28l-22 28v15c0 14 24 23.667 72 29z" />
    <glyph glyph-name="slash" unicode="/" horiz-adv-x="366" 
 />
    <glyph glyph-name="zero" unicode="0" horiz-adv-x="656" 
d="M471 975h43c65.333 0 111 -38.667 137 -116c6 -44 11 -72.333 15 -85c0 -233.333 -103.667 -457 -311 -671c-74.667 -52 -132 -78 -172 -78h-51c-84 0 -134 62 -150 186v30c0 210 100.333 426 301 648c83.333 57.333 146 86 188 86zM54 226c10 -110 43.333 -165 100 -165
c103.333 0 223.333 124.667 360 374c53.333 138 80 246 80 324c0 106.667 -36 166.667 -108 180c-95.333 -27.333 -187 -106.333 -275 -237c-104.667 -169.333 -157 -328 -157 -476z" />
    <glyph glyph-name="one" unicode="1" horiz-adv-x="368" 
d="M470 1047h21c10 -1.33301 15 -6 15 -14c0 -10 -67.333 -166 -202 -468c-151.333 -364 -233 -551.333 -245 -562h-43c-9.33301 0 -14 5 -14 15l309 741h-49c-10 0 -15 5 -15 15l195 265c8 5.33301 17.333 8 28 8z" />
    <glyph glyph-name="two" unicode="2" horiz-adv-x="659" 
d="M554 1033h28c53.333 -2 80 -24 80 -66c0 -126.667 -204 -416.667 -612 -870c210.667 -28.667 378.667 -60 504 -94c18.667 4.66699 35.667 7 51 7c32 -18.667 51 -28 57 -28v-29h-29c-18.667 0 -158 26 -418 78c-117.333 20 -184.333 30 -201 30
c-35.333 -44 -66.333 -66 -93 -66h-15c-30 0 -54 19.667 -72 59c10 28.667 36.333 43 79 43h50c406 450 615 738 627 864c-6 24 -13 36 -21 36c-82 0 -173.667 -70 -275 -210c-28.667 -38.667 -43 -62.667 -43 -72h-50c-10 0 -15 5 -15 15c40 104 121.667 195 245 273
c48 20 89 30 123 30zM-79 61l-8 -15h8l6 15h-6z" />
    <glyph glyph-name="three" unicode="3" horiz-adv-x="502" 
d="M442 1039h7c72 0 108 -28.333 108 -85c0 -109.333 -74.333 -222.333 -223 -339c106 -51.333 159 -130.333 159 -237c0 -103.333 -58 -211.333 -174 -324c-46 -39.333 -98.667 -59 -158 -59h-28c-135.333 15.333 -203 68.333 -203 159c0 60 19.667 108 59 144h13l36 -7
c-14 -45.333 -26 -91 -36 -137c13.333 -82 66.333 -123 159 -123c71.333 0 146 72 224 216c24 56 36 104 36 144c0 74 -46 139 -138 195c-38 -24 -78.667 -36 -122 -36c-34 4 -51 18.667 -51 44c11.333 32.667 33 49 65 49h94c144 104 216 210 216 318
c-4 28 -18.333 42 -43 42c-125.333 -32.667 -188 -73 -188 -121l-36 -8h-36c-8.66699 0 -13 5 -13 15v14c78 90.667 169 136 273 136z" />
    <glyph glyph-name="four" unicode="4" horiz-adv-x="521" 
d="M449 1038l28 -8v-21c-218.667 -340.667 -355 -578 -409 -712h229c75.333 192 126 300 152 324h36c10 -1.33301 15 -6.33301 15 -15l-123 -309h123l21 13h51c6.66699 0 13.667 -7 21 -21v-15c0 -8.66699 -4.66699 -13 -14 -13h-223c-48 -112 -72 -172 -72 -180h13v-29
c-32 -20 -53.333 -30 -64 -30h-8c-24 0 -36 5 -36 15c0 11.333 31.667 86 95 224h-245c-26 0 -40.333 7 -43 21v7c0 59.333 139 306.333 417 741z" />
    <glyph glyph-name="five" unicode="5" horiz-adv-x="657" 
d="M333 1006h360c7.33301 0 15 -7.33301 23 -22v-8c0 -12.667 -24 -22 -72 -28h-44c-10 0 -15 7.33301 -15 22h-180c0 -14 -64.333 -156 -193 -426h6c82.667 68 159.667 102 231 102h36c64.667 0 107.667 -41 129 -123v-87c0 -134.667 -64.667 -256.667 -194 -366
c-66 -38.667 -140.333 -58 -223 -58c-160 0 -273 77 -339 231v7l22 14h14c26 0 45.333 -21.667 58 -65c73.333 -100.667 157.333 -151 252 -151c155.333 0 266 108 332 324c4 24.667 6 48.667 6 72v28c0 78 -26 124 -78 138c-93.333 0 -213.333 -94 -360 -282h-44
c-10 0 -15 5 -15 15c0 14 96 223 288 627h-36v29z" />
    <glyph glyph-name="six" unicode="6" horiz-adv-x="614" 
d="M698 991c8.66699 -0.666992 13 -5.66699 13 -15v-13c0 -15.333 -21.333 -27.333 -64 -36h-8l-42 7c-208 -72 -359.333 -192 -454 -360c-57.333 -122.667 -86 -218.667 -86 -288v-36l6 -51c95.333 43.333 187 65 275 65h36c84.667 0 135 -31 151 -93v-51
c-24 -91.333 -103.333 -137 -238 -137c-110 0 -196.667 45.667 -260 137l-36 -8h-28c-9.33301 0 -14 5 -14 15c14 24 30.667 36 50 36c-9.33301 43.333 -14 74.333 -14 93v36c0 130 67 281.667 201 455c180 162.667 350.667 244 512 244zM86 148
c54.667 -86 129 -129 223 -129c96 20 144 58.667 144 116v21c0 42 -31.333 66 -94 72h-14c-88.667 0 -175 -26.667 -259 -80z" />
    <glyph glyph-name="seven" unicode="7" horiz-adv-x="502" 
d="M116 835c148.667 -4.66699 266.667 -7 354 -7h100v-15c0 -19.333 -67.333 -118 -202 -296l-266 -453c-68.667 -134 -112 -225 -130 -273h-72v6c114 263.333 256 518 426 764c28 48 80.333 125 157 231c-88.667 4.66699 -153 7 -193 7h-195v29
c4.66699 0 11.667 2.33301 21 7z" />
    <glyph glyph-name="eight" unicode="8" horiz-adv-x="536" 
d="M291 1029h29c58.667 0 123.667 -43 195 -129l108 108h57v-23l-129 -144l6 -36c0 -8.66699 -19 -15.667 -57 -21c-152 -172.667 -231 -271 -237 -295c62 -104 93 -188 93 -252v-14c0 -112.667 -60 -187 -180 -223c-18 -5.33301 -37 -8 -57 -8
c-96 11.333 -144 52.333 -144 123v14c0 70 67 192.333 201 367v8c-72 118.667 -108 214.667 -108 288c0 90.667 60 167 180 229zM140 792c0 -59.333 26.333 -136.333 79 -231h8l237 280v8c-67.333 96 -120.333 144 -159 144c-110 -56 -165 -123 -165 -201zM204 432
c-104.667 -153.333 -157 -254.333 -157 -303v-14c12.667 -58 38.667 -87 78 -87c62.667 0 115.667 53 159 159v42c0 50 -21.667 117.667 -65 203h-15z" />
    <glyph glyph-name="nine" unicode="9" horiz-adv-x="626" 
d="M378 973h59c96 0 170 -19 222 -57v-22h-36c-96 28.667 -163 43 -201 43h-8c-80 0 -149.333 -26.333 -208 -79c-82 -86 -123 -158 -123 -216c0 -24 26.333 -40.667 79 -50c119.333 0 266 96 440 288h51v-22c-20 -56 -150 -344 -390 -864l7 -36
c-24.667 -24 -46 -36 -64 -36l-36 7v15c0 8 110.333 255 331 741v8c-112 -91.333 -229.333 -137 -352 -137c-92 7.33301 -138 36 -138 86v15c0 62.667 48 141.667 144 237c72 52.667 146.333 79 223 79z" />
    <glyph glyph-name="colon" unicode=":" horiz-adv-x="523" 
 />
    <glyph glyph-name="semicolon" unicode=";" horiz-adv-x="549" 
 />
    <glyph glyph-name="semicolon" unicode="&#x37e;" horiz-adv-x="549" 
 />
    <glyph glyph-name="less" unicode="&#x3c;" horiz-adv-x="721" 
 />
    <glyph glyph-name="equal" unicode="=" horiz-adv-x="374" 
 />
    <glyph glyph-name="greater" unicode="&#x3e;" horiz-adv-x="637" 
 />
    <glyph glyph-name="question" unicode="?" horiz-adv-x="698" 
d="M481 1183c115.333 -14.667 173 -57.667 173 -129v-43c0 -152 -93.667 -272 -281 -360c-104 -73.333 -173.333 -172 -208 -296h-29l-36 8c0 70 52.667 161.333 158 274c202 112 303 208 303 288c14 16 21 40 21 72v50c0 48 -36 81.333 -108 100
c-45.333 0 -98 -26 -158 -78c-54 -60 -83 -118 -87 -174v-36c0 -38.667 21.667 -88.667 65 -150v-22h-57c-53.333 54.667 -80 114.667 -80 180v36c0 42.667 31 105 93 187c68 62 145 93 231 93zM93 247c24 -8.66699 36 -22.667 36 -42c-22 -20 -51 -30 -87 -30l-21 30v14
c0 14.667 24 24 72 28z" />
    <glyph glyph-name="at" unicode="@" horiz-adv-x="608" 
 />
    <glyph glyph-name="A" unicode="A" horiz-adv-x="1284" 
d="M1563 1687c36.667 0 58 -26 64 -78c-2 -124 -112.333 -424 -331 -900c38.667 0 58 -7.33301 58 -22v-8c0 -8.66699 -5 -13 -15 -13h-64c0 -18 -247.667 -529.667 -743 -1535l8 -13c-9.33301 -22 -19 -34 -29 -36h-51c-8.66699 0 -13 4.33301 -13 13l756 1578h-8
c-112.667 9.33301 -275.667 14 -489 14h-375c-208 -217.333 -433.333 -476.333 -676 -777c-226 -274 -466 -581.667 -720 -923c-18 -14 -35 -21 -51 -21c-24 4 -36 11 -36 21c14.667 77.333 29 116 43 116h36l15 -8c349.333 474 723.333 940 1122 1398
c98 103.333 156 168 174 194h-15c-160.667 0 -391 -2.66699 -691 -8c-24 0 -38.667 10 -44 30c27.333 24 56.333 36 87 36h21c10 0 15 -7.33301 15 -22h663c594 642.667 1023.67 964 1289 964zM367 730h8c184.667 0 467.667 -5 849 -15c220.667 476 331 778.667 331 908
l-7 28c-236 -20.667 -629.667 -327.667 -1181 -921z" />
    <glyph glyph-name="B" unicode="B" horiz-adv-x="1214" 
d="M1327 1728h72c140.667 0 241.667 -67.667 303 -203c10 -42.667 15 -73.667 15 -93v-21c0 -236 -202 -440 -606 -612c-46 -24 -115.667 -50.333 -209 -79v-8c66 -20 126 -73 180 -159c19.333 -54.667 29 -102.667 29 -144v-36c0 -158 -84 -282.333 -252 -373
c-81.333 -29.333 -163 -44 -245 -44c-182.667 0 -307 89 -373 267c14.667 9.33301 28.667 14 42 14c36 0 62.333 -33.667 79 -101c71.333 -90.667 146 -136 224 -136h57c168 -0 293 86.333 375 259c14 51.333 21 89.333 21 114v36c0 122 -67 216 -201 282h-108
c-10 0 -15 4.66699 -15 14c0 20.667 50.333 37.667 151 51c397.333 134.667 640 295 728 481c34 57.333 51 113 51 167v28c0 122 -70 206 -210 252l-86 8c-100.667 0 -249.667 -91.667 -447 -275c-272 -306.667 -471 -572.667 -597 -798
c-106 -158.667 -209.333 -331.667 -310 -519c-141.333 -242 -297.333 -539.333 -468 -892l-36 -8h-21c-7.33301 0 -17 9.66699 -29 29c0 100.667 184.667 513.667 554 1239c268.667 518 415 808.333 439 871l-13 6c32 68 65.333 102 100 102c19.333 -8 29 -15.333 29 -22
c-19.333 -56 -182.333 -384.667 -489 -986c-233.333 -454 -358.333 -706 -375 -756c10 4 63 102 159 294c652 1167.33 1146 1751 1482 1751z" />
    <glyph glyph-name="C" unicode="C" horiz-adv-x="1408" 
d="M1631 1915h101c72 0 112.333 -34 121 -102v-36c0 -76 -74 -200.333 -222 -373h-43c-7.33301 0 -15 7 -23 21c40 68.667 86 124 138 166c52 99.333 78 164 78 194v43c-18 34 -49 51 -93 51c-142.667 0 -308 -46 -496 -138c-137.333 -68 -296 -183 -476 -345
c-208 -210.667 -378.333 -419.667 -511 -627c-92 -154 -159 -295.333 -201 -424c-19.333 -90 -31.333 -159.667 -36 -209c0 -180 81.333 -297.333 244 -352h51c228 0 585.667 192 1073 576c24.667 28.667 48.667 43 72 43l36 -7v-29
c-17.333 -8.66699 -113.333 -83 -288 -223c-367.333 -243.333 -607.333 -368.333 -720 -375c-12 -13.333 -74.667 -23 -188 -29c-168 0 -281 96 -339 288c-4 25.333 -6 49.333 -6 72v57c0 299.333 232.667 703 698 1211c216.667 204.667 392 336.667 526 396
c194 100.667 362 151 504 151z" />
    <glyph glyph-name="D" unicode="D" horiz-adv-x="1516" 
d="M1292 1687h80c142 0 235.333 -88.333 280 -265c10 -48 15 -96 15 -144c0 -364 -177.333 -738.667 -532 -1124c-243.333 -222 -474 -359 -692 -411c-134 -42.667 -304.333 -64 -511 -64c-273.333 0 -556.333 41 -849 123c0 4.66699 -2.66699 11.667 -8 21
c17.333 14.667 46.333 22 87 22h29c42.667 0 64 -14.333 64 -43c274 -58 502 -87 684 -87c440 0 817 156 1131 468c350 372 525 737 525 1095c0 170.667 -50.333 285.667 -151 345c-35.333 18.667 -76 28 -122 28c-170 0 -360 -84 -570 -252
c-198.667 -188.667 -340 -356.667 -424 -504c-69.333 -106 -165.333 -302.333 -288 -589l-224 -476h-42c-8 0 -15.333 7 -22 21c130.667 365.333 277 685 439 959c34 66 132.667 282 296 648c-7.33301 0 -17 4.33301 -29 13c13.333 30 39.333 61.667 78 95h44
c10 0 15 -7.66699 15 -23c-72 -176 -132 -312.333 -180 -409h7c294 368.667 584 553 870 553z" />
    <glyph glyph-name="E" unicode="E" horiz-adv-x="716" 
d="M2589 1569c250 -5.33301 415.333 -8 496 -8l8 -13v-15c0 -14 -34 -23.667 -102 -29h-6l-30 21h-597c-806 0 -1540.67 -4.33301 -2204 -13c-8.66699 4.66699 -15.667 7 -21 7v14l8 15c26 0 71.333 2.33301 136 7c1359.33 9.33301 2130 14 2312 14zM457 1447h36
c9.33301 -2 14 -7 14 -15c0 -12 -115 -271 -345 -777v-7h7c637.333 14 997.333 21 1080 21l8 -14v-7c0 -10 -5 -15 -15 -15c-658 -14 -1025 -23.667 -1101 -29c-191.333 -434 -328.333 -777 -411 -1029v-15c0 -16 31 -25.333 93 -28h30c4 0 6 -2.66699 6 -8l15 8h21
c88 0 261 21.333 519 64l-21 29l21 15h7c29.333 0 65.333 -7.66699 108 -23v-36c-280 -56.667 -493.333 -85 -640 -85h-95c-90.667 0 -136 24 -136 72c0 64.667 137 410 411 1036h-210l-36 8v28c62.667 19.333 122.667 29 180 29h22v-21h65
c162.667 378.667 280 642.667 352 792z" />
    <glyph glyph-name="F" unicode="F" horiz-adv-x="871" 
d="M1550 1800h770c76.667 0 115 -7.66699 115 -23v-13c-10 0 -15 -2.66699 -15 -8c-210 5.33301 -366 8 -468 8h-201c-250.667 0 -721 -5 -1411 -15c-36 0 -55 -12 -57 -36h-8c-80 0 -128 14.333 -144 43c5.33301 19.333 32 29 80 29c666 10 1112.33 15 1339 15zM650 1656
h36c9.33301 0 14 -7.66699 14 -23c-221.333 -456 -406 -873.333 -554 -1252h6c370 18.667 591 28 663 28l8 -13v-15c-5.33301 -17.333 -70.333 -29.333 -195 -36c-5.33301 10 -8 17.333 -8 22c-44 -4.66699 -209.333 -14.667 -496 -30
c-38 -110.667 -189 -470.667 -453 -1080h-44c-10 0 -15 5 -15 15v8c8 60 30 115 66 165l374 892l-36 -6c-33.333 0 -103 -2.33301 -209 -7c0 8.66699 -5 13 -15 13c0 24 79.667 36 239 36h36c196.667 489.333 379 897.333 547 1224c12 39.333 24 59 36 59z" />
    <glyph glyph-name="G" unicode="G" horiz-adv-x="1439" 
d="M1245 1863h44c244.667 0 367 -134.667 367 -404c0 -62 -7 -127 -21 -195h-58c-17.333 0 -29.333 46 -36 138c10.667 9.33301 25 14 43 14v58c0 192 -79 307 -237 345l-72 8c-440 0 -834 -441.667 -1182 -1325c-72 -204 -108 -374.333 -108 -511c0 -168 60 -276 180 -324
c42 -10 76 -15 102 -15c216 0 472.667 141.333 770 424c46.667 27.333 118.667 162 216 404c30.667 10 52 15 64 15h15c29.333 -3.33301 44 -11 44 -23v-36c0 -36 -69.667 -141.333 -209 -316c-220 -540 -388 -895 -504 -1065h-30c-20 0 -34 9.33301 -42 28
c0 67.333 19 101 57 101h21c88 156 210.667 425 368 807c-279.333 -250 -534 -375 -764 -375h-36c-216 0 -324 129.333 -324 388c0 297.333 156 710.333 468 1239c267.333 413.333 555.333 620 864 620z" />
    <glyph glyph-name="H" unicode="H" horiz-adv-x="1151" 
d="M1696 1993c19.333 -6.66699 29 -13.667 29 -21c-47.333 -28.667 -71.333 -47.667 -72 -57c-264 -562.667 -470.667 -1021 -620 -1375h152c6.66699 0 13.667 -7.66699 21 -23v-6c0 -10 -4.66699 -15 -14 -15h-180c-422.667 -1014.67 -641 -1547.67 -655 -1599v-6
c10 -16 15 -30.333 15 -43l-15 -8h-21c-34 0 -51 19 -51 57c14 54 232.333 587 655 1599c-16 0 -85.333 2.66699 -208 8c-276 0 -487.667 -5 -635 -15c-158 -366 -290 -682.667 -396 -950h8c10 -2 15 -7 15 -15c-12 -24 -31.667 -36 -59 -36h-7l-36 8v7
c0 36 134.333 367 403 993h-64c-329.333 0 -608 -9.33301 -836 -28c0 -15.333 -4.33301 -23 -13 -23h-51c-35.333 0 -54.333 7.66699 -57 23v7c0 38 261.333 57 784 57h65c40.667 0 105.667 2.66699 195 8c192 462 386 884.333 582 1267l36 6c20 -6.66699 30 -13.667 30 -21
c-220 -442.667 -412 -860 -576 -1252h841c178 434 394 909 648 1425c33.333 18.667 62.333 28 87 28z" />
    <glyph glyph-name="I" unicode="I" horiz-adv-x="259" 
d="M348 1609h563c56 0 144.333 -2.33301 265 -7l8 -15v-8c0 -8.66699 -4.66699 -13 -14 -13h-987l-21 -15h-22c-53.333 0 -80 7.33301 -80 22v6c0 20 96 30 288 30zM522 1458c9.33301 0 14 -7.66699 14 -23c-389.333 -854.667 -651 -1459 -785 -1813
c10 -5.33301 17 -8 21 -8v-15c0 -6 -12 -18 -36 -36h-21c-16.667 0 -31 7.66699 -43 23c0 66 216 579.333 648 1540c76.667 168 129.667 278.667 159 332h43zM-601 -450c8.66699 0 13 -2.66699 13 -8c48 5.33301 84 8 108 8h462c20 0 46 -2.66699 78 -8
c5.33301 5.33301 25 8 59 8c172.667 -11.333 259 -33 259 -65v-36l-36 -7c-16 0 -33 14.333 -51 43c-44 14 -176 21 -396 21v8l-15 -8h-157c-11.333 0 -21 2.66699 -29 8c-8.66699 -5.33301 -18.667 -8 -30 -8h-144c-4 0 -6 -2.33301 -6 -7c-10 4.66699 -17.333 7 -22 7
c-27.333 0 -87.333 -2.33301 -180 -7c-5.33301 0 -12.333 2.33301 -21 7c-31.333 -4.66699 -94 -9.66699 -188 -15l-28 8c-29.333 -5.33301 -89.333 -10 -180 -14l-15 6c-73.333 -8.66699 -179 -15.667 -317 -21c-10 5.33301 -17 8 -21 8v28c97.333 14 383 28.667 857 44z
" />
    <glyph glyph-name="J" unicode="J" horiz-adv-x="300" 
d="M-88 1681h460c190 0 444.667 -2.33301 764 -7l15 -8l43 8h114c24 0 53 -5 87 -15v-29c-4.66699 0 -11.667 -2.33301 -21 -7c-200 6 -330 11 -390 15c-12 0 -31 -2.66699 -57 -8c-234.667 5.33301 -419.667 8 -555 8h-186c-28 0 -66.333 -2.66699 -115 -8
c-5.33301 0 -8 2.66699 -8 8c-48 -5.33301 -84 -8 -108 -8h-216c-196.667 0 -369.667 -7 -519 -21h-57c-10 0 -15 4.66699 -15 14v7c0 24 158.667 36 476 36c0 8 96 13 288 15zM603 1543h36c10 -0.666992 15 -5 15 -13c-350.667 -977.333 -667.667 -1592 -951 -1844
c-212 -202.667 -394.333 -325 -547 -367c-60 -19.333 -105.667 -29 -137 -29h-72c-110 0 -165 45.667 -165 137c-4.66699 0 -7 5 -7 15c8.66699 136.667 111.667 319 309 547c212.667 198 433.667 334.667 663 410c156.667 48 271.667 72 345 72h22v-36h-7
c-226 -21.333 -473.667 -117.333 -743 -288c-206.667 -157.333 -350.667 -316 -432 -476c-56.667 -88 -85 -169.333 -85 -244c12 -67.333 55 -101 129 -101h7c175.333 0 408.333 139 699 417c176 210 298 390 366 540c156 296 336 714 540 1254z" />
    <glyph glyph-name="K" unicode="K" horiz-adv-x="397" 
d="M496 1546h21c10 -2 15 -7 15 -15v-7c0 -23.333 -91 -256 -273 -698l-151 -360c256.667 120 525 278 805 474c137.333 104 281.333 226.667 432 368h44c10 -1.33301 15 -6 15 -14v-7c-181.333 -178 -371 -334 -569 -468c-200 -132 -452 -273.667 -756 -425v-30l626 -525
c100.667 -76.667 458 -333.667 1072 -771v-6l15 6c37.333 0 68.333 -33.333 93 -100c0 -9.33301 -4.33301 -14 -13 -14h-23c-22 0 -86.333 45.667 -193 137c-575.333 406.667 -935.333 665.667 -1080 777l-527 447h-6c-28.667 -82 -146.667 -370 -354 -864
c-74 -178 -119.333 -267 -136 -267h-21l-36 7v87c0 7.33301 19 17 57 29l432 1044h-8c-66 -29.333 -121 -44 -165 -44c-24.667 0 -41.667 9.66699 -51 29v15c8 72 42 108 102 108h21c56 -9.33301 94.667 -24 116 -44c14.667 0 31 33.667 49 101
c29.333 48.667 164 375 404 979l-14 8c9.33301 28.667 28.333 43 57 43zM-137 423c-20 -31.333 -30 -55.333 -30 -72h8l100 36v7c-42 19.333 -68 29 -78 29z" />
    <glyph glyph-name="L" unicode="L" horiz-adv-x="224" 
d="M868 1939h22l36 -6v-22c0 -29.333 -43.333 -99 -130 -209c-314 -638 -693 -1264.33 -1137 -1879l-195 -237h7c365.333 80.667 800 121 1304 121c686.667 0 1214.67 -60 1584 -180c0.666992 -8.66699 5 -13 13 -13c-4 -10 -6 -17.667 -6 -23h-115l-36 8v22h13v6
c-370 96 -864 144 -1482 144c-524 0 -968 -48 -1332 -144c-218.667 -248.667 -372.667 -373 -462 -373h-42c-40.667 0 -69.667 31 -87 93c0 76 115 160 345 252c135.333 42 207.333 68.333 216 79c12 22 84 113 216 273c268 374 486.667 705.667 656 995l562 1036
c25.333 38 42 57 50 57zM-1105 -761c8 -32.667 22.667 -49 44 -49c96 30 218.333 133 367 309h-7c-269.333 -92 -404 -178.667 -404 -260z" />
    <glyph glyph-name="M" unicode="M" horiz-adv-x="1525" 
d="M1824 1819h7c48 -6 72 -30 72 -72v-21c0 -146.667 -141.333 -516.667 -424 -1110c-317.333 -672.667 -476 -1150 -476 -1432v-36l8 -72l36 15c8 -5.33301 17.333 -8 28 -8v-21c-10.667 -24 -34.667 -36 -72 -36c-48 0 -72 48 -72 144c0 337.333 206.667 923 620 1757
c102.667 236.667 177 419 223 547c29.333 68 51 149.667 65 245c-7.33301 42.667 -17 64 -29 64c-116.667 -52.667 -289.667 -232.667 -519 -540l-589 -820c-50 -63.333 -88.667 -95 -116 -95h-7c-38 4 -57 21 -57 51c0 46 40.333 293 121 741c5.33301 48 8 84 8 108
c-5.33301 10 -8 17.667 -8 23c-60.667 -64 -144.667 -203.667 -252 -419c-238.667 -488 -404 -802 -496 -942c-26 -4.66699 -45 -7 -57 -7c-20 6.66699 -30 13.667 -30 21v15c0 122.667 130 504 390 1144c-23.333 0 -40.333 5 -51 15c20 39.333 53.333 68 100 86h44l7 -29
c-160 -382 -294.333 -754 -403 -1116h7c321.333 650 542 1065 662 1245c34.667 29.333 61 44 79 44h15c43.333 0 65 -33.667 65 -101c-10 -106.667 -51 -356 -123 -748c-4 -27.333 -6 -47 -6 -59c96.667 110 283.667 364.667 561 764c130 172.667 226 295 288 367
c154.667 192 281.667 288 381 288z" />
    <glyph glyph-name="N" unicode="N" horiz-adv-x="1418" 
d="M1546 1638h8c58 0 87 -31.667 87 -95v-13c0 -199.333 -245 -807 -735 -1823c-211.333 -470 -317 -753 -317 -849v-43l44 -29v-7c0 -9.33301 -5 -14 -15 -14h-36c-43.333 6 -65 27.667 -65 65v13c0 149.333 216 677.333 648 1584c269.333 579.333 404 947 404 1103v28
c0 29.333 -10 44 -30 44c-214 -15.333 -626.667 -419 -1238 -1211l-352 -460c-28 -38 -54.667 -57 -80 -57c-36.667 0 -58 9.33301 -64 28v21c0 108 156 454 468 1038c14 24 21 40.667 21 50l-21 15c36 56.667 69.333 85 100 85l36 -6v-7
c-14.667 -47.333 -132 -280.333 -352 -699l-138 -317c-9.33301 -16.667 -23.333 -59.667 -42 -129h6c362.667 483.333 694 893.333 994 1230c289.333 303.333 512.333 455 669 455z" />
    <glyph glyph-name="O" unicode="O" horiz-adv-x="1546" 
d="M1175 2023h87c288 0 432 -175.333 432 -526c0 -433.333 -182.667 -964 -548 -1592c-356 -552 -689.333 -828 -1000 -828h-8c-264 0 -396 158.667 -396 476c0 336.667 149 718 447 1144c279.333 308 466.333 474 561 498h21c10 -2 15 -7 15 -15v-7
c-154 -115.333 -274 -216 -360 -302c-220 -232 -371 -458 -453 -678c-106 -248 -159 -468.333 -159 -661c0 -216 77 -350.667 231 -404c26 -10 59.667 -15 101 -15c294.667 0 635 319.667 1021 959c303.333 570.667 455 1043 455 1417v51c0 235.333 -86.667 382 -260 440
l-136 13c-289.333 0 -594.333 -172.333 -915 -517c-81.333 -91.333 -153.333 -187.333 -216 -288c24 -1.33301 36 -9 36 -23c-32 -32.667 -65.667 -49 -101 -49h-21c-8 0 -15.333 7 -22 21c56.667 126 210 311 460 555c264 220.667 506.667 331 728 331z" />
    <glyph glyph-name="P" unicode="P" horiz-adv-x="563" 
d="M1455 1875h44c140.667 0 243.667 -93.667 309 -281c14.667 -80 22 -135 22 -165c0 -232.667 -113 -427 -339 -583c-152 -91.333 -296 -137 -432 -137h-115c-143.333 0 -282.333 33.667 -417 101v7c0 7.33301 7 14.333 21 21h15c174.667 -66.667 316 -100 424 -100
c254 0 470 108 648 324c82 116 123 240.333 123 373c0 167.333 -60 292.333 -180 375c-32 19.333 -68 29 -108 29c-128 0 -291.333 -96 -490 -288c-221.333 -237.333 -418 -504 -590 -800c-192 -322 -406 -722.333 -642 -1201c-52 -102 -90 -162 -114 -180h-51
c-10 0 -15 4.33301 -15 13c0 53.333 144 392 432 1016c390 802.667 599 1237 627 1303h-7l-21 15c40.667 62 76.667 93 108 93h28c10 0 15 -7 15 -21l-828 -1728v-7h6c624 1214 1133 1821 1527 1821z" />
    <glyph glyph-name="Q" unicode="Q" horiz-adv-x="1457" 
d="M1044 1641h43c209.333 0 351 -100.667 425 -302c28.667 -70.667 43 -150 43 -238v-93c0 -328 -139.333 -673.667 -418 -1037c-198 -202 -397 -358 -597 -468c-10 -4.66699 -17 -7 -21 -7v-8c200 10 437.333 15 712 15h432c671.333 0 1542.33 -89 2613 -267l8 -15
c0 -8.66699 -5 -13 -15 -13h-158c0 20.667 -125 44.667 -375 72c-860 128.667 -1608.33 193 -2245 193c-395.333 -4 -741.333 -11 -1038 -21c-310 -158 -533 -237 -669 -237h-93c-106 10 -159 43.667 -159 101c0 36.667 79 72.667 237 108c154 24 370 45.333 648 64
c178.667 95.333 385 249 619 461c9.33301 16 43 59.333 101 130c236 336 354 662 354 978c0 280 -101 458 -303 534c-38 9.33301 -79 14 -123 14h-21c-463.333 0 -792.333 -331 -987 -993l-14 -131c0 -186 72 -378 216 -576c43.333 0 65 -9.33301 65 -28
c4.66699 -32 7 -58.667 7 -80v-6h-64c-192 229.333 -288 447.333 -288 654v59c0 206 112.333 472.333 337 799c189.333 225.333 432 338 728 338zM-396 -692v-7c0 -18 29 -34.667 87 -50h49c129.333 0 324 62 584 186v8c-480 -36 -720 -81.667 -720 -137z" />
    <glyph glyph-name="R" unicode="R" horiz-adv-x="809" 
d="M1290 1530h36c111.333 0 188 -43.667 230 -131c10 -32.667 15 -61 15 -85c0 -145.333 -110.667 -306.333 -332 -483c-76.667 -55.333 -187 -103.333 -331 -144c-183.333 -38 -332 -57 -446 -57l-28 -8c92.667 -194 279.667 -494 561 -900
c224 -322 449.333 -612.333 676 -871c34 -24 55.667 -36 65 -36c0 10 14.333 17.333 43 22c19.333 -8 29 -15.333 29 -22c-7.33301 -24 -24 -36 -50 -36h-43c-77.333 10 -238.333 183 -483 519c-327.333 410 -610.333 834.333 -849 1273l-36 72l21 15
c350.667 0 638.667 77 864 231c178 166 267 312 267 438c0 98 -62.667 153.667 -188 167h-21c-146.667 0 -336 -103.667 -568 -311c-171.333 -178 -318 -372 -440 -582c-150 -274 -318 -639 -504 -1095c-12.667 -18.667 -29.667 -28 -51 -28h-21
c-4.66699 0 -14 9.33301 -28 28c0 64 153.333 484 460 1260l317 728l36 7h21c8 0 15.333 -10 22 -30c0 -42.667 -14.333 -64 -43 -64c-149.333 -326 -320 -738.667 -512 -1238v-7h8c108 252 249.333 504 424 756c73.333 104 174.333 216.333 303 337
c216 183.333 408 275 576 275zM-28 154c0 -8 -4.66699 -20 -14 -36v-7h8c0 8.66699 4.33301 20.667 13 36v7h-7z" />
    <glyph glyph-name="S" unicode="S" horiz-adv-x="952" 
d="M1149 1857h21c176 0 286.667 -57.667 332 -173c10 -42.667 15 -73.667 15 -93v-43c0 -185.333 -113 -392 -339 -620c-84 -64 -153.667 -112 -209 -144h-43c-7.33301 0 -14.333 7 -21 21c14.667 44 48 66 100 66c202 136 341 320.667 417 554
c15.333 38.667 23 79.667 23 123v43c0 109.333 -55.667 181.333 -167 216c-36 9.33301 -69.333 14 -100 14h-44c-438 0 -714 -290.667 -828 -872c-32.667 -150 -70.667 -445 -114 -885c194 128 443.667 243 749 345h28c10 -0.666992 15 -5 15 -13v-23
c-308 -96 -577 -225.333 -807 -388c-66.667 -561.333 -253.667 -842 -561 -842h-7c-63.333 6 -95 30 -95 72v6c0 150 154 376 462 678c91.333 70 137 110.667 137 122c62 624.667 126.333 1030 193 1216c148 413.333 429 620 843 620zM-414 -756v-44c0 -14 10 -21 30 -21
c142 0 266.667 103 374 309c72 217.333 108 364 108 440c-231.333 -207.333 -382.333 -383 -453 -527c-39.333 -76 -59 -128.333 -59 -157z" />
    <glyph glyph-name="T" unicode="T" horiz-adv-x="196" 
d="M510 1638h252c198 0 668.667 -9.66699 1412 -29c24 -4 36 -11.333 36 -22v-21l-129 -15c0 6.66699 -7.66699 14 -23 22c-636.667 19.333 -1087.67 29 -1353 29h-144c-352.667 0 -698 -9.66699 -1036 -29l-15 21c20 14 39 21 57 21c380 15.333 694.333 23 943 23z
M546 1558h29c10 -0.666992 15 -5.66699 15 -15c0 -12 -60 -139 -180 -381c-254 -538.667 -527.667 -1232 -821 -2080l8 -36c-36 -87.333 -60 -131 -72 -131h-30c-9.33301 0 -14 5 -14 15c72 233.333 196.667 596 374 1088c212 542 438 1053 678 1533z" />
    <glyph glyph-name="U" unicode="U" horiz-adv-x="1358" 
d="M1678 1533h51c10 -1.33301 15 -6 15 -14v-7c0 -18 -55.667 -107 -167 -267c-488.667 -1074 -733 -1794 -733 -2160c0 -98 33.333 -158 100 -180v-21l-36 -8c-76 0 -119.333 62.667 -130 188l-6 43c0 307.333 196.333 917 589 1829c-722 -994 -1228.33 -1491 -1519 -1491
c-81.333 0 -122 50.333 -122 151c38 346 287.667 905 749 1677v8l-15 22c38 38 67 57 87 57h28c10 -0.666992 15 -5.66699 15 -15v-13c-228 -358 -429.333 -735 -604 -1131c-125.333 -291.333 -188 -498 -188 -620c0 -66.667 19 -100 57 -100
c138 8.66699 363.667 179 677 511c458.667 534 797 975.667 1015 1325c34 88.667 79.667 160.667 137 216z" />
    <glyph glyph-name="V" unicode="V" horiz-adv-x="729" 
d="M1658 1975h15c6.66699 0 13.667 -7 21 -21c0 -28.667 -16.667 -43 -50 -43c-156 -174 -341 -414 -555 -720l-1072 -1670c-55.333 -76.667 -96.333 -115 -123 -115h-36c-25.333 0 -39.333 52.333 -42 157v152c0 534 122 1208.33 366 2023c12 14 26.333 21 43 21
c10 -4 17.667 -6 23 -6v-7c-250 -840 -375 -1548 -375 -2124c0 -35.333 5 -91 15 -167c76 80 224.333 303.667 445 671c318 524 654 1028 1008 1512c169.333 224.667 275 337 317 337z" />
    <glyph glyph-name="W" unicode="W" horiz-adv-x="1677" 
d="M2523 2505c18.667 -7.33301 28 -14.333 28 -21c-62 -91.333 -98 -137 -108 -137c-30.667 0 -57 -26.333 -79 -79c-163.333 -233.333 -393.333 -723 -690 -1469c-272 -712.667 -476 -1195 -612 -1447c-36 -48 -72 -72 -108 -72c-40 0 -69 19 -87 57
c-29.333 82.667 -44 222 -44 418c0 92 14.667 545.667 44 1361v7c0 15.333 -2.66699 56 -8 122c-80 -104 -272 -500 -576 -1188c-132 -276 -220.333 -422.667 -265 -440h-51c-38 0 -57 41 -57 123c0 156 76.333 624 229 1404c15.333 106 42 159 80 159h7
c33.333 -10.667 50 -39.667 50 -87v-15h-42c-12 0 -36 -117.333 -72 -352c-120 -558 -180 -937 -180 -1137c0 -4 2 -18.667 6 -44h7c137.333 226 349 663 635 1311c106 220 182.333 330 229 330h15c43.333 0 65 -57.333 65 -172v-36c-29.333 -765.333 -44 -1212 -44 -1340
v-49c0 -183.333 17 -313 51 -389h8c68 60 245.333 453.667 532 1181c325.333 856.667 604 1463.67 836 1821c90.667 120 157.667 180 201 180z" />
    <glyph glyph-name="X" unicode="X" horiz-adv-x="421" 
d="M-370 1735h36c166 0 279 -180 339 -540c18.667 -56 64 -246 136 -570c162 218 301.667 384 419 498c62 52 134 78 216 78c52 -4 78 -13.333 78 -28v-14l-29 -7c-42 4.66699 -68.333 7 -79 7c-85.333 0 -239 -156 -461 -468l-121 -151
c146.667 -628 280.667 -1009.67 402 -1145l36 -22h15c28.667 0 64.667 31.333 108 94c8 4 17.333 6 28 6l29 -6c0 -52.667 -43 -96 -129 -130h-57c-150 0 -311 374.333 -483 1123c-218 -294.667 -455.667 -568 -713 -820c-592 -557.333 -1053 -836 -1383 -836h-72
c-34.667 0 -53.667 7 -57 21c0 8 9.66699 15.667 29 23c8 0 37 -2.66699 87 -8c152 0 372.333 91 661 273c519.333 353.333 992.333 833.333 1419 1440c-124.667 592 -216 938 -274 1038c-62 72 -107.667 108 -137 108c-42 -4.66699 -68.333 -7 -79 -7l-14 21
c18 14.667 34.667 22 50 22z" />
    <glyph glyph-name="Y" unicode="Y" horiz-adv-x="1385" 
d="M1811 1854c28.667 0 43 -9.66699 43 -29c0 -54 -130 -380.333 -390 -979c-42.667 -87.333 -181.667 -395 -417 -923c-34 -56.667 -51 -99.667 -51 -129c138 58 316 87 534 87c153.333 -4 230 -14 230 -30v-6l-8 -15c-102.667 5.33301 -179 8 -229 8h-29
c-224.667 0 -407 -43.667 -547 -131c-207.333 -450.667 -332.333 -716.667 -375 -798c-69.333 -100.667 -132 -151 -188 -151h-42c-48 0 -72 36 -72 108c0 144.667 120 355.667 360 633c52 58 136 139.333 252 244c411.333 900 697 1553 857 1959
c-51.333 -54.667 -258 -325.667 -620 -813c-198 -246 -378 -457.333 -540 -634c-244.667 -264 -441.667 -396 -591 -396h-13c-53.333 0 -85 36 -95 108v22c0 198 166 622.667 498 1274c-44 0 -66 7.33301 -66 22c70 81.333 120.667 122 152 122h36c10 -1.33301 15 -6 15 -14
v-30c-370 -710.667 -555 -1171 -555 -1381v-15c10 -43.333 22 -65 36 -65c198.667 0 650 470.667 1354 1412c201.333 276.667 343 454 425 532zM348 -1134v-23c0 -28 10 -42 30 -42c60 0 177.667 206 353 618c48 100 72 153 72 159c-223.333 -228 -351 -391 -383 -489
c-48 -88 -72 -162.333 -72 -223z" />
    <glyph glyph-name="Z" unicode="Z" horiz-adv-x="356" 
d="M624 1528c196 0 294 -19.333 294 -58v-14c0 -28.667 -122 -194.667 -366 -498c-212 -272.667 -522 -632.667 -930 -1080l-324 -324c232 39.333 486.333 59 763 59h245c712.667 0 1641.67 -65 2787 -195v-29c-59.333 -18.667 -112.333 -28 -159 -28l-14 21
c15.333 10 27.333 15 36 15v7c-1238.67 120 -2158 180 -2758 180c-667.333 -16.667 -1001 -57.667 -1001 -123c-110 -96 -213 -144 -309 -144h-22c-22 0 -41 12 -57 36c0 60 129.333 122.667 388 188c405.333 402 713 733 923 993c332.667 390.667 574.667 695.667 726 915
v7c0 21.333 -103 35.333 -309 42c-373.333 -12 -592 -26 -656 -42v-22h-13c-77.333 4 -116 16 -116 36c0 26.667 218.667 46 656 58h216zM-1119 -647h15c60.667 0 134.667 41 222 123h-6c-154 -50.667 -231 -91.667 -231 -123z" />
    <glyph glyph-name="bracketleft" unicode="[" horiz-adv-x="546" 
 />
    <glyph glyph-name="backslash" unicode="\" horiz-adv-x="244" 
 />
    <glyph glyph-name="bracketright" unicode="]" horiz-adv-x="553" 
 />
    <glyph glyph-name="asciicircum" unicode="^" horiz-adv-x="324" 
 />
    <glyph glyph-name="underscore" unicode="_" horiz-adv-x="49" 
 />
    <glyph glyph-name="grave" unicode="`" horiz-adv-x="170" 
 />
    <glyph glyph-name="a" unicode="a" horiz-adv-x="410" 
d="M250 556h22c9.33301 -2 14 -7 14 -15v-7c-57.333 -132 -86 -218.667 -86 -260h6c52 28 119.667 71.667 203 131h7c8 -5.33301 17.667 -8 29 -8v-21c-109.333 -96 -191 -144 -245 -144h-22c-29.333 0 -44 14 -44 42v8c0 34 5 60.333 15 79v8h-7c-42 -58 -85 -87 -129 -87
h-15c-25.333 0 -40 7.33301 -44 22v21c0 56 36 106.667 108 152c26 14 50 21 72 21c21.333 -5.33301 38.333 -8 51 -8c36 44 57.667 66 65 66zM20 333h6c72 60.667 108 96.667 108 108l-13 7h-15c-37.333 -20 -66 -56 -86 -108v-7z" />
    <glyph glyph-name="b" unicode="b" horiz-adv-x="382" 
d="M483 1432c19.333 -6.66699 29 -13.667 29 -21c0 -14.667 -103 -233 -309 -655l-167 -404h8c58.667 82 116 123 172 123h51c6 0 18 -12 36 -36v-22c0 -31.333 -31 -79.333 -93 -144c36 16.667 88.667 57.667 158 123h7l36 -8v-15c-110 -124 -223 -186 -339 -186h-36l-36 6
c-48 -98.667 -86 -160.667 -114 -186h-30l-21 14c230 584.667 434 1040.67 612 1368l-7 15c10 18.667 24.333 28 43 28zM30 229v-6c100 43.333 169.667 105.333 209 186v15c0 10 -5 15 -15 15c-48 -12 -112.667 -82 -194 -210z" />
    <glyph glyph-name="c" unicode="c" horiz-adv-x="298" 
d="M143 493c42.667 -8 64 -25 64 -51c-6 -34 -15.333 -51 -28 -51h-36c-9.33301 0 -14 5 -14 15c9.33301 16 14 30.667 14 44c-61.333 0 -116.333 -69.667 -165 -209c4.66699 -10 7 -17.333 7 -22h21c41.333 0 130.333 57.333 267 172c8 5.33301 17.667 8 29 8h7
c9.33301 -1.33301 14 -6 14 -14v-15c-135.333 -130 -248 -195 -338 -195c-48 9.33301 -72 31.333 -72 66c54 168 130.667 252 230 252z" />
    <glyph glyph-name="d" unicode="d" horiz-adv-x="399" 
d="M644 1345h28c10 0 15 -7 15 -21l-619 -1447c4.66699 -9.33301 7 -16.333 7 -21l-22 -15h-6c-26 0 -40.667 7.33301 -44 22c0 25.333 84 229.333 252 612c-42.667 -46 -64 -84.333 -64 -115c-23.333 0 -59.333 -24 -108 -72c-35.333 -24 -62 -36 -80 -36h-51
c-8.66699 0 -13 4.33301 -13 13v8c2.66699 62.667 48 142 136 238l36 6h8c18 0 39.333 -12 64 -36h8c98.667 162 175 301.667 229 419c82 158 151.667 304.333 209 439zM11 301c50.667 28 91 66.667 121 116v7c-4.66699 29.333 -11.667 44 -21 44
c-54 -59.333 -87.333 -115 -100 -167z" />
    <glyph glyph-name="e" unicode="e" horiz-adv-x="241" 
d="M118 496h13c39.333 -4 59 -21 59 -51c0 -26 -53 -54.333 -159 -85c-24 -52 -36 -85.667 -36 -101h7c58 4 137 49.667 237 137h23c8.66699 -1.33301 13 -6.33301 13 -15v-14c-96 -96 -180 -144 -252 -144h-42c-34 0 -51 14 -51 42c0 26 12 55 36 87l-7 15v14
c10 0 46 33.333 108 100zM89 424h6l30 29c-22 -9.33301 -34 -19 -36 -29z" />
    <glyph glyph-name="f" unicode="f" horiz-adv-x="206" 
d="M329 1129l36 -6v-15c0 -28.667 -41 -110 -123 -244l-259 -605h7c51.333 19.333 121 67.333 209 144h15c10 -2 15 -7 15 -15v-15c-100 -104.667 -189 -157 -267 -157l-8 -29l15 -123c0 -142.667 -57.333 -325 -172 -547c-46 -86 -87 -129 -123 -129
c-29.333 2.66699 -44 17 -44 43c0 97.333 86.667 351.333 260 762c-29.333 46 -44 75 -44 87l36 8h8l28 -23h8c174 416 303.333 702 388 858zM-95 79c-99.333 -208 -171.333 -417 -216 -627v-7h6c144 252 216 461 216 627v7h-6z" />
    <glyph glyph-name="g" unicode="g" horiz-adv-x="405" 
d="M267 565c8.66699 -4.66699 15.667 -7 21 -7v-15c0 -20 -26.667 -99 -80 -237c107.333 76.667 172.333 115 195 115h21c10 -2 15 -7 15 -15v-7c-8.66699 -14 -64 -50 -166 -108c-81.333 -56 -122 -104 -122 -144c-176.667 -446 -299 -669 -367 -669h-8
c-42.667 2.66699 -64 21.667 -64 57c24.667 156 108.667 338.333 252 547c28 37.333 81 92.333 159 165l42 131c-62 -58 -112 -87 -150 -87h-8c-34 0 -51 17 -51 51v13c37.333 101.333 97.333 152 180 152c24 0 36 -7 36 -21c45.333 52.667 77 79 95 79zM21 349v-15
c28 11.333 76 57 144 137h-14c-54 0 -97.333 -40.667 -130 -122zM-224 -473c36 0 129.667 187.667 281 563c4.66699 8.66699 7 15.667 7 21c-86.667 -104 -156 -214.667 -208 -332c-53.333 -116 -80 -200 -80 -252z" />
    <glyph glyph-name="h" unicode="h" horiz-adv-x="354" 
d="M303 1174c20.667 -8.66699 32.667 -18 36 -28v-14c-5.33301 -28.667 -106.333 -288 -303 -778c0 -2 -2.66699 -11.667 -8 -29c58 96 113.667 144 167 144h21c10.667 0 18 -12 22 -36c-20.667 -50 -37.667 -100.333 -51 -151c31.333 18.667 84.333 64 159 136h29
c8.66699 -0.666992 13 -5 13 -13v-15c-80 -86 -140 -138.667 -180 -158h-64c-7.33301 0 -14.333 7 -21 21v29c0 22.667 12 61 36 115h-8c-66.667 -114.667 -117 -172 -151 -172h-14c-26 0 -40.333 7 -43 21v7c28.667 104 139 394.667 331 872l-7 36
c14.667 8.66699 26.667 13 36 13z" />
    <glyph glyph-name="i" unicode="i" horiz-adv-x="242" 
d="M215 855h44v-44c-46 -14 -75 -21 -87 -21h-21c-10 0 -15 4.66699 -15 14c0 6.66699 26.333 23.667 79 51zM43 523h28c7.33301 0 14.333 -7 21 -21v-7c0 -16 -24 -81 -72 -195v-36c63.333 34 133.333 79.333 210 136h6c9.33301 -4 19.333 -6 30 -6v-22
c-86 -80 -170 -132.667 -252 -158h-22c-29.333 0 -44 14 -44 42c0 34 26.667 111 80 231c-5.33301 10 -8 17 -8 21z" />
    <glyph glyph-name="j" unicode="j" horiz-adv-x="179" 
d="M181 855h44v-44c-46 -14 -75 -21 -87 -21h-21c-10 0 -15 4.66699 -15 14c0 6.66699 26.333 23.667 79 51zM37 544h29c10 0 15 -7 15 -21c-44 -130.667 -70.667 -205 -80 -223c54 38.667 114 74.667 180 108c24 -6 36 -13 36 -21v-8
c-178 -106.667 -267 -183.667 -267 -231c-172.667 -456 -299.667 -684 -381 -684h-15c-28.667 0 -43 14.667 -43 44v28c16.667 198 127 407 331 627c43.333 19.333 87 96.333 131 231c26.667 100 48 150 64 150zM-431 -492c50 36 138.667 209 266 519
c14.667 38 22 59.333 22 64c-124 -130.667 -208 -269.667 -252 -417c-24 -68 -36 -123.333 -36 -166z" />
    <glyph glyph-name="k" unicode="k" horiz-adv-x="547" 
d="M650 1855h36c8.66699 -0.666992 13 -5.66699 13 -15c0 -8.66699 -62 -138 -186 -388c-188 -384 -349 -753.667 -483 -1109c110 144 194 216 252 216h57c27.333 0 44.333 -9.33301 51 -28v-23c0 -44.667 -50.333 -97 -151 -157c-41.333 -15.333 -75 -23 -101 -23v-6
c0 -74.667 21.667 -127.667 65 -159h15c50 0 155.333 81.667 316 245h21c10 -5.33301 17.667 -8 23 -8c0 -26.667 -48 -81.667 -144 -165c-81.333 -72.667 -153.333 -111 -216 -115c-61.333 0 -105 33.333 -131 100c-2.66699 44 -9.66699 66 -21 66
c-98 -160.667 -196.333 -357.667 -295 -591c-8 -4.66699 -17.667 -7 -29 -7h-7c-12 0 -19 9.33301 -21 28c316.667 830 614 1519 892 2067c-10 0 -15 5 -15 15c0 6 19.667 25 59 57zM123 364c71.333 0 139 46 203 138v21c-55.333 0 -123 -53 -203 -159z" />
    <glyph glyph-name="l" unicode="l" horiz-adv-x="254" 
d="M606 1756h15c14 0 21 -9.33301 21 -28c-24 -71.333 -74.667 -165 -152 -281c0 -10.667 -43 -106.667 -129 -288c-250 -550.667 -377 -879.667 -381 -987c4 -10 6 -17 6 -21h8c24.667 0 106 81.667 244 245c9.33301 4.66699 19.333 7 30 7h6c10 -2 15 -7 15 -15v-15
c-124.667 -176.667 -230 -265 -316 -265c-34 0 -51 16.333 -51 49v30c0 130 216 650.667 648 1562z" />
    <glyph glyph-name="m" unicode="m" horiz-adv-x="512" 
d="M315 550h13c34 0 51 -17 51 -51c0 -10 -17 -79.333 -51 -208l8 -14c16 0 76 40.667 180 122h15c8.66699 -5.33301 15.667 -8 21 -8v-13c-80 -91.333 -157 -137 -231 -137c-30 0 -46.667 19 -50 57l50 209c-18 -3.33301 -68 -104 -150 -302l-30 -30h-57
c0 5.33301 -2.66699 13 -8 23l72 252c-54 -91.333 -102 -156.333 -144 -195h-64v28c0 50 19 91 57 123c24 0 36 -7 36 -21c58.667 91.333 99.667 137 123 137h7c29.333 0 44 -17 44 -51v-36h6c28 76.667 62 115 102 115z" />
    <glyph glyph-name="n" unicode="n" horiz-adv-x="344" 
d="M192 526h29c6.66699 0 13.667 -7 21 -21v-28c0 -22 -28.667 -99 -86 -231c12 0 72 53 180 159h36c9.33301 -1.33301 14 -6.33301 14 -15v-8c-104 -124 -180.667 -186 -230 -186h-28l-36 6v36c0 22 28.333 96.667 85 224h-7c-118 -149.333 -182.667 -224 -194 -224h-51
c-8.66699 0 -13 5 -13 15v8c0 54.667 31 114.667 93 180h21c10 -1.33301 15 -6.33301 15 -15v-14l-8 -15h8c64.667 86 115 129 151 129z" />
    <glyph glyph-name="o" unicode="o" horiz-adv-x="291" 
d="M103 471c25.333 0 42 -24 50 -72c0 -3.33301 -7 -37 -21 -101c40 14 85.333 45 136 93c9.33301 5.33301 19 8 29 8c10 -5.33301 17.333 -8 22 -8v-13c-66.667 -77.333 -138.667 -116 -216 -116c0 -18 -19.333 -39.333 -58 -64h-65c-18.667 8 -28 24.333 -28 49v8
c0 84 36 153.333 108 208zM88 406v-28h8v28h-8zM81 370v-28h7v28h-7zM16 327l-7 -72v-21h7c18 8.66699 30 23 36 43c-2.66699 0 -14.667 16.667 -36 50z" />
    <glyph glyph-name="p" unicode="p" horiz-adv-x="358" 
d="M36 525h42l8 -36c-5.33301 -25.333 -8 -40 -8 -44c51.333 39.333 95 59 131 59h13c39.333 0 59 -19.667 59 -59v-21c0 -20 -17 -51 -51 -93h7c13.333 0 52 24 116 72h13c10 -4.66699 17.667 -7 23 -7v-36c-76 -58 -153 -87 -231 -87c-29.333 -24 -53.333 -36 -72 -36h-29
c-10 0 -15 5 -15 15v13c0 9.33301 29 26.333 87 51c58 55.333 87 94 87 116v13c0 10 -5 15 -15 15c-60.667 -16.667 -120.667 -83.667 -180 -201c-84 -160 -175 -359.333 -273 -598h-15l-36 7v15c29.333 79.333 137.333 348 324 806c0 24 5 36 15 36z" />
    <glyph glyph-name="q" unicode="q" horiz-adv-x="324" 
d="M258 556c10 -4.66699 17.333 -7 22 -7c0 -24 -108 -297.667 -324 -821c0 -38.667 -10 -58 -30 -58h-49v22c8.66699 33.333 99.667 259 273 677h-8c-58 -58 -103.333 -87 -136 -87h-50c-10.667 0 -18 12 -22 36c42 124.667 102 187 180 187h36l28 -21
c23.333 48 50 72 80 72zM-2 325c46 18 96.667 63.667 152 137h-21c-47.333 0 -88.333 -40.667 -123 -122z" />
    <glyph glyph-name="r" unicode="r" horiz-adv-x="290" 
d="M49 583h7c43.333 0 65 -24 65 -72c-14 -32 -21 -54 -21 -66c28 -18.667 45 -28 51 -28v-29c0 -10 -7.66699 -34 -23 -72h8c96 67.333 151 101 165 101h7c10 -1.33301 15 -6 15 -14v-15c-80.667 -76.667 -145.667 -115 -195 -115h-13c-34 0 -51 14.333 -51 43
c14 46 21 72.667 21 80l-14 7c-90.667 -158.667 -155.667 -281 -195 -367h-43c-9.33301 0 -14 4.33301 -14 13c44 106 111 238 201 396c-14 0 -26 22 -36 66v29c17.333 28.667 39 43 65 43zM43 517l13 -6v21c-8.66699 -0.666992 -13 -5.66699 -13 -15z" />
    <glyph glyph-name="s" unicode="s" horiz-adv-x="305" 
d="M54 534h28c34 0 51 -16.667 51 -50c0 -16 -31.333 -50 -94 -102c16 -18 30.333 -56 43 -114c34 0 106 43 216 129h29c10 -0.666992 15 -5.66699 15 -15v-6c-83.333 -78 -172.333 -131 -267 -159c-14 -38 -42.667 -57 -86 -57h-43v29c16 24 42.333 45.333 79 64
c0 26 -21.333 81 -64 165v23c14.667 62 45.667 93 93 93zM18 433c30 18 49 39.667 57 65h-6c-34 -14 -51 -35.667 -51 -65z" />
    <glyph glyph-name="t" unicode="t" horiz-adv-x="142" 
d="M199 840h22c9.33301 -1.33301 14 -6 14 -14c0 -20.667 -21.667 -80.667 -65 -180h1715l36 -7v-23c0 -14 -43.667 -21 -131 -21h-28l-21 15h-1592c0 -8.66699 -185 -443 -555 -1303c10 0 15 -7.66699 15 -23c-30 -66.667 -59 -100 -87 -100c-24 4 -36 11.333 -36 22
l599 1404h-462c-9.33301 0 -14 4.66699 -14 14c5.33301 14.667 20 22 44 22h438c8 0 39.333 62 94 186z" />
    <glyph glyph-name="u" unicode="u" horiz-adv-x="357" 
d="M33 502h23c8.66699 -2 13 -7 13 -15v-15c-42.667 -114 -64 -176 -64 -186c8 0 46.333 40.667 115 122l21 15h8l36 -8v-15c0 -12 -7 -43 -21 -93l13 -7c12 0 74.667 33.333 188 100c18.667 -6.66699 28 -13.667 28 -21v-7c-74.667 -66 -141.667 -102 -201 -108h-36
c-34 0 -51 12 -51 36c-38 -38 -69 -57 -93 -57h-51c-14 4.66699 -21 19 -21 43c39.333 144 70.333 216 93 216z" />
    <glyph glyph-name="v" unicode="v" horiz-adv-x="314" 
d="M277 594l28 -8v-43l-58 -93v-8c16.667 -28.667 45.667 -43 87 -43v-21c0 -10 -5 -15 -15 -15h-36c-20 0 -44 12 -72 36c-102 -158 -176 -237 -222 -237h-8c-24.667 0 -41.667 12 -51 36c24 138 55.667 224.333 95 259l36 -7v-8c-48 -134 -72 -213 -72 -237
c42 34 106.333 110.667 193 230c-8.66699 36 -13 55.333 -13 58c26 67.333 62 101 108 101z" />
    <glyph glyph-name="w" unicode="w" horiz-adv-x="417" 
d="M164 504c24 -1.33301 36 -6.33301 36 -15c0 -36 -12 -103 -36 -201v-8h7c41.333 91.333 72.333 137 93 137h23c18 -24 32 -36 42 -36c2.66699 0 31.667 9.33301 87 28l28 -6v-30c-30.667 -24.667 -66 -39.667 -106 -45l-65 8c-42 -85.333 -83.333 -128 -124 -128h-29
c-6.66699 0 -13.667 7 -21 21v44l8 43v8h-8c-36 -96 -72 -144 -108 -144h-22c-9.33301 2 -19 14 -29 36c24 152.667 48 229 72 229h23c8.66699 0 13 -7 13 -21c0 -12.667 -7 -46 -21 -100v-8h8c48.667 125.333 91.667 188 129 188z" />
    <glyph glyph-name="x" unicode="x" horiz-adv-x="323" 
d="M-31 481h42c28.667 -18.667 43 -42.667 43 -72h8c40 48 61.333 72 64 72h29c10 -0.666992 15 -5 15 -13c0 -21.333 -29 -65 -87 -131c0 -12.667 12 -41 36 -85c32.667 12.667 92.667 60.667 180 144c2.66699 0 12.667 2.33301 30 7c18.667 -8 28 -15.333 28 -22v-8
c-110.667 -114.667 -192 -172 -244 -172c-48 20.667 -72 47 -72 79c-9.33301 0 -31.333 -21.333 -66 -64l-50 -15h-15c-6.66699 0 -13.667 7.33301 -21 22c81.333 74 122 117 122 129c-14 67.333 -33 101 -57 101v15c0.666992 8.66699 5.66699 13 15 13z" />
    <glyph glyph-name="y" unicode="y" horiz-adv-x="246" 
d="M204 472c10 -0.666992 15 -5 15 -13v-8l-576 -1347c9.33301 0 14 -7 14 -21c-14 -30 -35.667 -56.333 -65 -79h-28c-10 0 -15 7.33301 -15 22l547 1274h-7c-26 -35.333 -59.667 -64 -101 -86h-57c-6.66699 0 -14 9.66699 -22 29c30 90.667 59 148 87 172h36v-15l-57 -144
c26 16 95.333 88 208 216h21z" />
    <glyph glyph-name="z" unicode="z" horiz-adv-x="311" 
d="M110 496c48 -4 72 -11 72 -21v-15c-84.667 -52 -151.667 -100 -201 -144l-7 -36l21 -15h22c38 0 131.667 48 281 144h28c10 -0.666992 15 -5 15 -13v-8c-140 -110 -250.333 -165 -331 -165c-67.333 0 -101 21.667 -101 65c0 46.667 55 99 165 157v8h-108
c-10 0 -15 5 -15 15c0 6.66699 7.66699 13.667 23 21c44.667 0 90 2.33301 136 7z" />
    <glyph glyph-name="braceleft" unicode="{" horiz-adv-x="49" 
d="M-2377 -2h152c534.667 0 1278.67 -55.333 2232 -166l7 -14v-15c-4.66699 0 -12 -2.33301 -22 -7c-956 110.667 -1688 166 -2196 166h-188c-386.667 0 -806.667 -38.333 -1260 -115v-29h-21c-72 0 -108 9.66699 -108 29c0 24.667 230.667 63 692 115
c256.667 24 494 36 712 36z" />
    <glyph glyph-name="bar" unicode="|" horiz-adv-x="31" 
d="M-913 90h43c322 0 617 -33.667 885 -101l8 -15v-7c0 -14 -26.667 -21 -80 -21c-30 46.667 -282 82.667 -756 108h-121c-269.333 0 -677.333 -36 -1224 -108c-10 4.66699 -17.667 7 -23 7v14c0 20.667 288 56.667 864 108c140 10 274.667 15 404 15z" />
    <glyph glyph-name="braceright" unicode="}" horiz-adv-x="30" 
d="M-2026 109c716.667 0 1347.67 -55 1893 -165c106 -32.667 163.333 -61.667 172 -87v-36c0 -72 -648 -125 -1944 -159c-746 -42.667 -1149 -100 -1209 -172c-6.66699 0 -13.667 -7 -21 -21v-15c0 -96 321.667 -158.667 965 -188c196.667 -24 295 -50 295 -78v-43
c0 -33.333 -82 -77 -246 -131c-84 -18.667 -139 -28 -165 -28c-8.66699 4.66699 -15.667 7 -21 7v8c0 10.667 67 29.667 201 57c115.333 40 173 78.333 173 115c0 32 -292.667 68 -878 108c-260 37.333 -390 95 -390 173c0 148 670 237 2010 267
c782 32 1173 70.333 1173 115c-28.667 93.333 -539.667 170 -1533 230c-208.667 4.66699 -372 7 -490 7c-656 0 -1366.67 -72 -2132 -216v-21h-28c-57.334 0 -86 9.66699 -86 29c42 24 279.667 67 713 129c568.667 76.667 1084.67 115 1548 115z" />
    <glyph glyph-name="asciitilde" unicode="~" horiz-adv-x="299" 
 />
    <glyph glyph-name="exclamdown" unicode="&#xa1;" horiz-adv-x="17" 
 />
    <glyph glyph-name="cent" unicode="&#xa2;" horiz-adv-x="389" 
 />
    <glyph glyph-name="sterling" unicode="&#xa3;" horiz-adv-x="228" 
 />
    <glyph glyph-name="currency" unicode="&#xa4;" horiz-adv-x="144" 
 />
    <glyph glyph-name="yen" unicode="&#xa5;" horiz-adv-x="214" 
 />
    <glyph glyph-name="brokenbar" unicode="&#xa6;" horiz-adv-x="185" 
 />
    <glyph glyph-name="section" unicode="&#xa7;" horiz-adv-x="161" 
 />
    <glyph glyph-name="dieresis" unicode="&#xa8;" horiz-adv-x="144" 
 />
    <glyph glyph-name="copyright" unicode="&#xa9;" horiz-adv-x="538" 
 />
    <glyph glyph-name="ordfeminine" unicode="&#xaa;" horiz-adv-x="65" 
 />
    <glyph glyph-name="guillemotleft" unicode="&#xab;" horiz-adv-x="189" 
 />
    <glyph glyph-name="logicalnot" unicode="&#xac;" horiz-adv-x="174" 
 />
    <glyph glyph-name="registered" unicode="&#xae;" horiz-adv-x="540" 
 />
    <glyph glyph-name="macron" unicode="&#xaf;" horiz-adv-x="116" 
 />
    <glyph glyph-name="degree" unicode="&#xb0;" horiz-adv-x="161" 
 />
    <glyph glyph-name="plusminus" unicode="&#xb1;" horiz-adv-x="196" 
 />
    <glyph glyph-name="uni00B2" unicode="&#xb2;" horiz-adv-x="235" 
 />
    <glyph glyph-name="uni00B3" unicode="&#xb3;" 
 />
    <glyph glyph-name="acute" unicode="&#xb4;" horiz-adv-x="1024" 
 />
    <glyph glyph-name="mu" unicode="&#xb5;" horiz-adv-x="1180" 
 />
    <glyph glyph-name="paragraph" unicode="&#xb6;" horiz-adv-x="1024" 
 />
    <glyph glyph-name="periodcentered" unicode="&#xb7;" horiz-adv-x="508" 
 />
    <glyph glyph-name="periodcentered" unicode="&#x2219;" horiz-adv-x="508" 
 />
    <glyph glyph-name="cedilla" unicode="&#xb8;" horiz-adv-x="1024" 
 />
    <glyph glyph-name="uni00B9" unicode="&#xb9;" 
 />
    <glyph glyph-name="ordmasculine" unicode="&#xba;" horiz-adv-x="718" 
 />
    <glyph glyph-name="guillemotright" unicode="&#xbb;" horiz-adv-x="944" 
 />
    <glyph glyph-name="onequarter" unicode="&#xbc;" horiz-adv-x="1708" 
 />
    <glyph glyph-name="onehalf" unicode="&#xbd;" horiz-adv-x="1964" 
 />
    <glyph glyph-name="threequarters" unicode="&#xbe;" horiz-adv-x="1708" 
 />
    <glyph glyph-name="questiondown" unicode="&#xbf;" horiz-adv-x="748" 
 />
    <glyph glyph-name="Agrave" unicode="&#xc0;" horiz-adv-x="1540" 
 />
    <glyph glyph-name="Aacute" unicode="&#xc1;" horiz-adv-x="1540" 
 />
    <glyph glyph-name="Acircumflex" unicode="&#xc2;" horiz-adv-x="1540" 
 />
    <glyph glyph-name="Atilde" unicode="&#xc3;" horiz-adv-x="1540" 
 />
    <glyph glyph-name="Adieresis" unicode="&#xc4;" horiz-adv-x="1540" 
 />
    <glyph glyph-name="Aring" unicode="&#xc5;" horiz-adv-x="1540" 
 />
    <glyph glyph-name="AE" unicode="&#xc6;" horiz-adv-x="2118" 
 />
    <glyph glyph-name="Ccedilla" unicode="&#xc7;" horiz-adv-x="1399" 
 />
    <glyph glyph-name="Egrave" unicode="&#xc8;" horiz-adv-x="1151" 
 />
    <glyph glyph-name="Eacute" unicode="&#xc9;" horiz-adv-x="1151" 
 />
    <glyph glyph-name="Ecircumflex" unicode="&#xca;" horiz-adv-x="1151" 
 />
    <glyph glyph-name="Edieresis" unicode="&#xcb;" horiz-adv-x="1151" 
 />
    <glyph glyph-name="Igrave" unicode="&#xcc;" horiz-adv-x="657" 
 />
    <glyph glyph-name="Iacute" unicode="&#xcd;" horiz-adv-x="657" 
 />
    <glyph glyph-name="Icircumflex" unicode="&#xce;" horiz-adv-x="657" 
 />
    <glyph glyph-name="Idieresis" unicode="&#xcf;" horiz-adv-x="657" 
 />
    <glyph glyph-name="Eth" unicode="&#xd0;" horiz-adv-x="1518" 
 />
    <glyph glyph-name="Ntilde" unicode="&#xd1;" horiz-adv-x="1554" 
 />
    <glyph glyph-name="Ograve" unicode="&#xd2;" horiz-adv-x="1614" 
 />
    <glyph glyph-name="Oacute" unicode="&#xd3;" horiz-adv-x="1614" 
 />
    <glyph glyph-name="Ocircumflex" unicode="&#xd4;" horiz-adv-x="1614" 
 />
    <glyph glyph-name="Otilde" unicode="&#xd5;" horiz-adv-x="1614" 
 />
    <glyph glyph-name="Odieresis" unicode="&#xd6;" horiz-adv-x="1614" 
 />
    <glyph glyph-name="multiply" unicode="&#xd7;" 
 />
    <glyph glyph-name="Oslash" unicode="&#xd8;" horiz-adv-x="1614" 
 />
    <glyph glyph-name="Ugrave" unicode="&#xd9;" horiz-adv-x="1501" 
 />
    <glyph glyph-name="Uacute" unicode="&#xda;" horiz-adv-x="1501" 
 />
    <glyph glyph-name="Ucircumflex" unicode="&#xdb;" horiz-adv-x="1501" 
 />
    <glyph glyph-name="Udieresis" unicode="&#xdc;" horiz-adv-x="1501" 
 />
    <glyph glyph-name="Yacute" unicode="&#xdd;" horiz-adv-x="1233" 
 />
    <glyph glyph-name="Thorn" unicode="&#xde;" horiz-adv-x="1120" 
 />
    <glyph glyph-name="germandbls" unicode="&#xdf;" horiz-adv-x="1251" 
 />
    <glyph glyph-name="agrave" unicode="&#xe0;" horiz-adv-x="922" 
 />
    <glyph glyph-name="aacute" unicode="&#xe1;" horiz-adv-x="922" 
 />
    <glyph glyph-name="acircumflex" unicode="&#xe2;" horiz-adv-x="922" 
 />
    <glyph glyph-name="atilde" unicode="&#xe3;" horiz-adv-x="922" 
 />
    <glyph glyph-name="adieresis" unicode="&#xe4;" horiz-adv-x="922" 
 />
    <glyph glyph-name="aring" unicode="&#xe5;" horiz-adv-x="922" 
 />
    <glyph glyph-name="ae" unicode="&#xe6;" horiz-adv-x="1454" 
 />
    <glyph glyph-name="ccedilla" unicode="&#xe7;" horiz-adv-x="905" 
 />
    <glyph glyph-name="egrave" unicode="&#xe8;" horiz-adv-x="909" 
 />
    <glyph glyph-name="eacute" unicode="&#xe9;" horiz-adv-x="909" 
 />
    <glyph glyph-name="ecircumflex" unicode="&#xea;" horiz-adv-x="909" 
 />
    <glyph glyph-name="edieresis" unicode="&#xeb;" horiz-adv-x="909" 
 />
    <glyph glyph-name="igrave" unicode="&#xec;" horiz-adv-x="514" 
 />
    <glyph glyph-name="iacute" unicode="&#xed;" horiz-adv-x="514" 
 />
    <glyph glyph-name="icircumflex" unicode="&#xee;" horiz-adv-x="514" 
 />
    <glyph glyph-name="idieresis" unicode="&#xef;" horiz-adv-x="514" 
 />
    <glyph glyph-name="eth" unicode="&#xf0;" horiz-adv-x="1139" 
 />
    <glyph glyph-name="ntilde" unicode="&#xf1;" horiz-adv-x="1108" 
 />
    <glyph glyph-name="ograve" unicode="&#xf2;" horiz-adv-x="1010" 
 />
    <glyph glyph-name="oacute" unicode="&#xf3;" horiz-adv-x="1010" 
 />
    <glyph glyph-name="ocircumflex" unicode="&#xf4;" horiz-adv-x="1010" 
 />
    <glyph glyph-name="otilde" unicode="&#xf5;" horiz-adv-x="1010" 
 />
    <glyph glyph-name="odieresis" unicode="&#xf6;" horiz-adv-x="1010" 
 />
    <glyph glyph-name="divide" unicode="&#xf7;" 
 />
    <glyph glyph-name="oslash" unicode="&#xf8;" horiz-adv-x="1010" 
 />
    <glyph glyph-name="ugrave" unicode="&#xf9;" horiz-adv-x="1059" 
 />
    <glyph glyph-name="uacute" unicode="&#xfa;" horiz-adv-x="1059" 
 />
    <glyph glyph-name="ucircumflex" unicode="&#xfb;" horiz-adv-x="1059" 
 />
    <glyph glyph-name="udieresis" unicode="&#xfc;" horiz-adv-x="1059" 
 />
    <glyph glyph-name="yacute" unicode="&#xfd;" horiz-adv-x="868" 
 />
    <glyph glyph-name="thorn" unicode="&#xfe;" horiz-adv-x="1010" 
 />
    <glyph glyph-name="ydieresis" unicode="&#xff;" horiz-adv-x="868" 
 />
    <glyph glyph-name="dotlessi" unicode="&#x131;" horiz-adv-x="514" 
 />
    <glyph glyph-name="circumflex" unicode="&#x2c6;" horiz-adv-x="1024" 
 />
    <glyph glyph-name="caron" unicode="&#x2c7;" horiz-adv-x="1024" 
 />
    <glyph glyph-name="uni02C9" unicode="&#x2c9;" horiz-adv-x="1024" 
 />
    <glyph glyph-name="breve" unicode="&#x2d8;" horiz-adv-x="1024" 
 />
    <glyph glyph-name="dotaccent" unicode="&#x2d9;" horiz-adv-x="1024" 
 />
    <glyph glyph-name="ring" unicode="&#x2da;" horiz-adv-x="1024" 
 />
    <glyph glyph-name="ogonek" unicode="&#x2db;" horiz-adv-x="1024" 
 />
    <glyph glyph-name="tilde" unicode="&#x2dc;" horiz-adv-x="299" 
 />
    <glyph glyph-name="hungarumlaut" unicode="&#x2dd;" horiz-adv-x="690" 
 />
    <glyph glyph-name="endash" unicode="&#x2013;" horiz-adv-x="1108" 
 />
    <glyph glyph-name="emdash" unicode="&#x2014;" horiz-adv-x="2048" 
 />
    <glyph glyph-name="quoteleft" unicode="&#x2018;" horiz-adv-x="499" 
 />
    <glyph glyph-name="quoteright" unicode="&#x2019;" horiz-adv-x="499" 
 />
    <glyph glyph-name="quotesinglbase" unicode="&#x201a;" horiz-adv-x="293" 
 />
    <glyph glyph-name="quotedblleft" unicode="&#x201c;" horiz-adv-x="690" 
 />
    <glyph glyph-name="quotedblright" unicode="&#x201d;" horiz-adv-x="690" 
 />
    <glyph glyph-name="quotedblbase" unicode="&#x201e;" horiz-adv-x="690" 
 />
    <glyph glyph-name="dagger" unicode="&#x2020;" 
 />
    <glyph glyph-name="daggerdbl" unicode="&#x2021;" 
 />
    <glyph glyph-name="bullet" unicode="&#x2022;" horiz-adv-x="1024" 
 />
    <glyph glyph-name="ellipsis" unicode="&#x2026;" horiz-adv-x="2048" 
 />
    <glyph glyph-name="guilsinglleft" unicode="&#x2039;" horiz-adv-x="631" 
 />
    <glyph glyph-name="guilsinglright" unicode="&#x203a;" horiz-adv-x="631" 
 />
    <glyph glyph-name="fraction" unicode="&#x2044;" horiz-adv-x="342" 
 />
    <glyph glyph-name="fraction" unicode="&#x2215;" horiz-adv-x="342" 
 />
    <glyph glyph-name="franc" unicode="&#x20a3;" 
 />
    <glyph glyph-name="lira" unicode="&#x20a4;" 
 />
    <glyph glyph-name="peseta" unicode="&#x20a7;" horiz-adv-x="2028" 
 />
    <glyph glyph-name="Euro" unicode="&#x20ac;" 
 />
    <glyph glyph-name="uni2116" unicode="&#x2116;" horiz-adv-x="2271" 
 />
    <glyph glyph-name="trademark" unicode="&#x2122;" horiz-adv-x="1497" 
 />
    <glyph glyph-name="partialdiff" unicode="&#x2202;" 
 />
    <glyph glyph-name="Delta" unicode="&#x2206;" horiz-adv-x="1081" 
 />
    <glyph glyph-name="product" unicode="&#x220f;" horiz-adv-x="1515" 
 />
    <glyph glyph-name="summation" unicode="&#x2211;" horiz-adv-x="1206" 
 />
    <glyph glyph-name="minus" unicode="&#x2212;" 
 />
    <glyph glyph-name="radical" unicode="&#x221a;" 
 />
    <glyph glyph-name="infinity" unicode="&#x221e;" 
 />
    <glyph glyph-name="integral" unicode="&#x222b;" horiz-adv-x="665" 
 />
    <glyph glyph-name="approxequal" unicode="&#x2248;" 
 />
    <glyph glyph-name="lessequal" unicode="&#x2264;" 
 />
    <glyph glyph-name="greaterequal" unicode="&#x2265;" 
 />
    <glyph glyph-name="uniF001" unicode="&#xf001;" horiz-adv-x="1073" 
 />
    <glyph glyph-name="uniF001" unicode="&#xfb01;" horiz-adv-x="1073" 
 />
    <glyph glyph-name="uniF002" unicode="&#xf002;" horiz-adv-x="1081" 
 />
    <glyph glyph-name="uniF002" unicode="&#xfb02;" horiz-adv-x="1081" 
 />
    <glyph glyph-name="nonmarkingreturn" horiz-adv-x="508" 
 />
    <glyph glyph-name="g_2" horiz-adv-x="259" 
d="M162 444h21c7.33301 0 14.333 -7 21 -21l-165 -347c179.333 53.333 388.333 80 627 80c235.333 0 463.333 -28.667 684 -86v-30l-36 -6h-43c-27.333 34 -215 62.667 -563 86h-64c-206 0 -417 -31 -633 -93c-233.333 -442 -389.333 -663 -468 -663h-15
c-33.333 0 -50 14.333 -50 43c8 130 104 300.667 288 512c72 62 136.667 107.333 194 136c0 8 31.333 73 94 195h-7c-31.333 -34 -60.333 -51 -87 -51h-50c-8 0 -18 9.66699 -30 29v15c0 66.667 48 126.667 144 180h44c16 0 33 -7.66699 51 -23c0 8 14.333 22.667 43 44z
M-54 243h6c21.333 8 65 48.333 131 121c-19.333 0 -29 7.66699 -29 23c-72 -51.333 -108 -99.333 -108 -144zM-457 -578v-15c110.667 115.333 192 230.333 244 345c77.333 123.333 116 193.333 116 210c-111.333 -86 -198 -184.333 -260 -295
c-66.667 -118 -100 -199.667 -100 -245z" />
    <glyph glyph-name="j_2" horiz-adv-x="118" 
d="M255 876h8c8.66699 -1.33301 13 -6 13 -14v-15c-20 -24 -48.333 -36 -85 -36h-15c-9.33301 0 -14 5 -14 15v14c2 0 33 12 93 36zM47 451c8.66699 -4.66699 15.667 -7 21 -7v-14c-23.333 -68.667 -81 -188.667 -173 -360h8c140.667 52 299 78 475 78h158
c366.667 0 767.667 -74 1203 -222v-36h-44c-62 0 -93 9.66699 -93 29c0 14 -113 47.333 -339 100c-282 62 -534 93 -756 93h-93c-242.667 0 -430 -40.333 -562 -121c-125.333 -245.333 -240.333 -433 -345 -563c-39.333 -48 -80.333 -72 -123 -72c-29.333 12 -44 29 -44 51
c15.333 146 116.333 319 303 519l165 108l210 410c2 0 11.667 2.33301 29 7zM-594 -593c102 98 200 239.667 294 425l59 108h-8c-156 -102 -271 -274.667 -345 -518v-15z" />
    <glyph glyph-name="y_2" horiz-adv-x="307" 
d="M37 444c8.66699 -5.33301 15.667 -8 21 -8v-6c-43.333 -110.667 -65 -170.667 -65 -180h8c56.667 38 111.667 78.667 165 122h15l28 -8c-42.667 -150 -114.667 -337 -216 -561c230 115.333 534.667 173 914 173h166c287.333 0 542 -26.667 764 -80l6 -13v-23l-72 -6
c-14 0 -26 9.66699 -36 29c-247.333 38 -482.333 57 -705 57h-80c-460.667 0 -794 -74.667 -1000 -224c-224 -494 -428 -741 -612 -741c-19.333 0 -34 9.66699 -44 29v43c57.333 187.333 228 398.333 512 633c82.667 50 130.667 108 144 174c82 192 135 326 159 402
c-68 -42.667 -116 -64 -144 -64c-26 0 -40.667 7.33301 -44 22v6c33.333 149.333 72 224 116 224zM-647 -981c122.667 0 290.667 211 504 633c-153.333 -113.333 -290.333 -255 -411 -425c-62 -100.667 -93 -170 -93 -208z" />
  </font>
</defs>
</svg>
